<?xml version="1.0" encoding="utf-8"?>
<svg xmlns="http://www.w3.org/2000/svg" width="512" height="512" viewBox="0 0 512 512">
  <path fill="#0D8FDA" d="M7.9,256C7.9,119,119,7.9,256,7.9C393,7.9,504.1,119,504.1,256c0,137-111.1,248.1-248.1,248.1C119,504.1,7.9,393,7.9,256z" />
  <path fill="#F5F5F5" d="M159.1,106.1c-9.2,0-16.7,7.5-16.7,16.7v267.7c0,9.2,7.5,16.7,16.7,16.7h192.4c9.2,0,16.7-7.5,16.7-16.7v-207l-80.7-77.5H159.1z" />
  <path fill="#E1E1E1" d="M368.3,183.6h-63.9c-9.2,0-16.7-7.5-16.7-16.7v-60.8L368.3,183.6z" />
  <path fill="#C9C9C8" d="M344.7 206.5c0 2.9-2.3 5.2-5.2 5.2H172.4c-2.9 0-5.2-2.3-5.2-5.2l0 0c0-2.9 2.3-5.2 5.2-5.2h167.1C342.4 201.2 344.7 203.6 344.7 206.5L344.7 206.5zM344.7 233.9c0 2.9-2.3 5.2-5.2 5.2H172.4c-2.9 0-5.2-2.3-5.2-5.2l0 0c0-2.9 2.3-5.2 5.2-5.2h167.1C342.4 228.7 344.7 231 344.7 233.9L344.7 233.9zM344.7 260c0 2.9-2.3 5.2-5.2 5.2H172.4c-2.9 0-5.2-2.3-5.2-5.2l0 0c0-2.9 2.3-5.2 5.2-5.2h167.1C342.4 254.8 344.7 257.1 344.7 260L344.7 260zM344.7 287.4c0 2.9-2.3 5.2-5.2 5.2H172.4c-2.9 0-5.2-2.3-5.2-5.2l0 0c0-2.9 2.3-5.2 5.2-5.2h167.1C342.4 282.2 344.7 284.5 344.7 287.4L344.7 287.4zM259.9 309.6h-87.5c-2.9 0-5.2 2.3-5.2 5.2s2.3 5.2 5.2 5.2h87.5c2.9 0 5.2-2.3 5.2-5.2S262.8 309.6 259.9 309.6z" />
  <g>
    <path fill="#0EA24A" d="M351.5 323A59.7 59.7 0 1 0 351.5 442.4A59.7 59.7 0 1 0 351.5 323Z" />
    <path fill="#FFF" d="M350.8,396.5l-18.6-18.6c-3.7-3.7-9.6-3.7-13.3,0c-3.7,3.7-3.7,9.6,0,13.3l18.6,18.6c3.7,3.7,9.6,3.7,13.3,0C354.5,406.1,354.5,400.1,350.8,396.5z" />
    <path fill="#FFF" d="M385.9,362.5c-3.7-3.7-9.6-3.7-13.3,0l-34.4,34.4c-3.7,3.7-3.7,9.6,0,13.3c3.7,3.7,9.6,3.7,13.3,0l34.4-34.4C389.5,372.1,389.5,366.2,385.9,362.5z" />
  </g>
</svg>