<?xml version="1.0" encoding="utf-8"?>
<svg xmlns="http://www.w3.org/2000/svg" width="512" height="512" viewBox="0 0 512 512">
  <path fill="#0D8FDA" d="M7.9,256C7.9,119,119,7.9,256,7.9C393,7.9,504.1,119,504.1,256c0,137-111.1,248.1-248.1,248.1C119,504.1,7.9,393,7.9,256z" />
  <path fill="#E7E7E7" d="M284.1,309.5c0,6.5-5.3,11.9-11.9,11.9H136c-6.5,0-11.9-5.3-11.9-11.9V119.8c0-6.5,5.3-11.9,11.9-11.9h136.3c6.5,0,11.9,5.3,11.9,11.9V309.5z" />
  <path fill="#C9C9C8" d="M267.5 159.6c0 2-1.7 3.7-3.7 3.7H145.4c-2 0-3.7-1.7-3.7-3.7l0 0c0-2 1.7-3.7 3.7-3.7h118.4C265.8 155.9 267.5 157.6 267.5 159.6L267.5 159.6zM267.5 179c0 2-1.7 3.7-3.7 3.7H145.4c-2 0-3.7-1.7-3.7-3.7l0 0c0-2 1.7-3.7 3.7-3.7h118.4C265.8 175.3 267.5 177 267.5 179L267.5 179zM267.5 140.2c0 2-1.7 3.7-3.7 3.7H145.4c-2 0-3.7-1.7-3.7-3.7l0 0c0-2 1.7-3.7 3.7-3.7h118.4C265.8 136.5 267.5 138.2 267.5 140.2L267.5 140.2zM267.5 198.5c0 2.1-1.7 3.7-3.7 3.7H145.4c-2 0-3.7-1.7-3.7-3.7l0 0c0-2 1.7-3.7 3.7-3.7h118.4C265.8 194.8 267.5 196.4 267.5 198.5L267.5 198.5zM267.5 217c0 2-1.7 3.7-3.7 3.7H145.4c-2 0-3.7-1.7-3.7-3.7l0 0c0-2 1.7-3.7 3.7-3.7h118.4C265.8 213.3 267.5 214.9 267.5 217L267.5 217zM267.5 236.4c0 2-1.7 3.7-3.7 3.7H145.4c-2 0-3.7-1.7-3.7-3.7l0 0c0-2 1.7-3.7 3.7-3.7h118.4C265.8 232.7 267.5 234.3 267.5 236.4L267.5 236.4z" />
  <g>
    <path fill="#F3F4F5" d="M407.5,342.7c0,6.5-5.3,11.8-11.9,11.8H259.4c-6.5,0-11.9-5.3-11.9-11.8V153.1c0-6.5,5.3-11.9,11.9-11.9h136.3c6.5,0,11.9,5.3,11.9,11.9V342.7z" />
    <path fill="#C9C9C8" d="M390.8 192.9c0 2-1.7 3.7-3.7 3.7H268.8c-2 0-3.7-1.7-3.7-3.7l0 0c0-2 1.7-3.7 3.7-3.7h118.4C389.2 189.2 390.8 190.9 390.8 192.9L390.8 192.9zM390.8 212.3c0 2-1.7 3.7-3.7 3.7H268.8c-2 0-3.7-1.7-3.7-3.7l0 0c0-2 1.7-3.7 3.7-3.7h118.4C389.2 208.6 390.8 210.3 390.8 212.3L390.8 212.3zM390.8 173.5c0 2-1.7 3.7-3.7 3.7H268.8c-2 0-3.7-1.7-3.7-3.7l0 0c0-2 1.7-3.7 3.7-3.7h118.4C389.2 169.8 390.8 171.5 390.8 173.5L390.8 173.5zM390.8 231.8c0 2.1-1.7 3.7-3.7 3.7H268.8c-2 0-3.7-1.7-3.7-3.7l0 0c0-2 1.7-3.7 3.7-3.7h118.4C389.2 228.1 390.8 229.7 390.8 231.8L390.8 231.8zM390.8 250.3c0 2-1.7 3.7-3.7 3.7H268.8c-2 0-3.7-1.7-3.7-3.7l0 0c0-2 1.7-3.7 3.7-3.7h118.4C389.2 246.6 390.8 248.2 390.8 250.3L390.8 250.3zM390.8 269.7c0 2-1.7 3.7-3.7 3.7H268.8c-2 0-3.7-1.7-3.7-3.7l0 0c0-2 1.7-3.7 3.7-3.7h118.4C389.2 266 390.8 267.6 390.8 269.7L390.8 269.7z" />
  </g>
  <g>
    <path fill="#F5F5F5" d="M198.1,196c-6.5,0-11.9,5.3-11.9,11.9v189.6c0,6.5,5.3,11.9,11.9,11.9h136.3c6.5,0,11.9-5.3,11.9-11.9V250.9L289.1,196H198.1z" />
    <path fill="#E1E1E1" d="M346.2,250.9h-45.3c-6.5,0-11.9-5.3-11.9-11.9v-43L346.2,250.9z" />
    <path fill="#C9C9C8" d="M329.5 267.1c0 2-1.7 3.7-3.7 3.7H207.5c-2 0-3.7-1.7-3.7-3.7l0 0c0-2 1.7-3.7 3.7-3.7h118.4C327.9 263.4 329.5 265 329.5 267.1L329.5 267.1zM329.5 286.5c0 2-1.7 3.7-3.7 3.7H207.5c-2 0-3.7-1.7-3.7-3.7l0 0c0-2 1.7-3.7 3.7-3.7h118.4C327.9 282.8 329.5 284.5 329.5 286.5L329.5 286.5zM329.5 305c0 2-1.7 3.7-3.7 3.7H207.5c-2 0-3.7-1.7-3.7-3.7l0 0c0-2 1.7-3.7 3.7-3.7h118.4C327.9 301.3 329.5 303 329.5 305L329.5 305zM329.5 324.4c0 2-1.7 3.7-3.7 3.7H207.5c-2 0-3.7-1.7-3.7-3.7l0 0c0-2 1.7-3.7 3.7-3.7h118.4C327.9 320.7 329.5 322.4 329.5 324.4L329.5 324.4zM269.4 340.1h-62c-2 0-3.7 1.7-3.7 3.7s1.7 3.7 3.7 3.7h62c2 0 3.7-1.7 3.7-3.7S271.5 340.1 269.4 340.1z" />
  </g>
</svg>