<?xml version="1.0" encoding="utf-8"?>
<svg xmlns="http://www.w3.org/2000/svg" viewBox="0 0 48 48" width="144" height="144">
  <path d="M18.5 6C15.480226 6 13 8.4802259 13 11.5L13 17.5 A 1.50015 1.50015 0 1 0 16 17.5L16 11.5C16 10.101774 17.101774 9 18.5 9L36.5 9C37.898226 9 39 10.101774 39 11.5L39 36.5C39 37.898226 37.898226 39 36.5 39L18.5 39C17.101774 39 16 37.898226 16 36.5L16 30.519531 A 1.50015 1.50015 0 1 0 13 30.519531L13 36.5C13 39.519774 15.480226 42 18.5 42L36.5 42C39.519774 42 42 39.519774 42 36.5L42 11.5C42 8.4802259 39.519774 6 36.5 6L18.5 6 z M 24.484375 16.503906 A 1.50015 1.50015 0 0 0 23.439453 19.080078L26.876953 22.517578L7.5019531 22.5 A 1.50015 1.50015 0 1 0 7.4980469 25.5L26.880859 25.517578L23.439453 28.958984 A 1.50015 1.50015 0 1 0 25.560547 31.080078L31.560547 25.080078 A 1.50015 1.50015 0 0 0 31.560547 22.958984L25.560547 16.958984 A 1.50015 1.50015 0 0 0 24.484375 16.503906 z" />
</svg>