<?xml version="1.0" encoding="utf-8"?>
<svg xmlns="http://www.w3.org/2000/svg" viewBox="0 0 48 48" width="50" height="50">
  <path d="M22.998047 3.9980469C17.492964 3.9980469 12.998047 8.4929678 12.998047 13.998047C12.998047 19.503126 17.492964 23.998047 22.998047 23.998047C28.50313 23.998047 32.998047 19.503126 32.998047 13.998047C32.998047 8.4929678 28.50313 3.9980469 22.998047 3.9980469 z M 22.998047 6.9980469C26.881811 6.9980469 29.998047 10.114285 29.998047 13.998047C29.998047 17.881808 26.881811 20.998047 22.998047 20.998047C19.114283 20.998047 15.998047 17.881808 15.998047 13.998047C15.998047 10.114285 19.114283 6.9980469 22.998047 6.9980469 z M 37 23C36.69425 23 36.387719 23.126906 36.199219 23.378906C33.548219 26.912906 29.042 26.978516 29 26.978516C28.448 26.978516 28 27.426516 28 27.978516L28 34C28 43.669 36.670813 45.948703 36.757812 45.970703C36.837813 45.990703 36.918 46 37 46C37.082 46 37.162187 45.990703 37.242188 45.970703C37.329188 45.948703 46 43.669 46 34L46 27.978516C46 27.428516 45.553906 26.981516 45.003906 26.978516C44.958906 26.978516 40.451781 26.912906 37.800781 23.378906C37.612281 23.126906 37.30575 23 37 23 z M 10.978516 28C8.7845156 28 6.9980469 29.784516 6.9980469 31.978516L6.9980469 33.5C6.9980469 36.812 8.8846406 39.6745 12.306641 41.5625C15.154641 43.1335 18.951047 44 22.998047 44L23.001953 44C25.172953 44 27.266547 43.742531 29.185547 43.269531C28.535547 42.495531 27.9375 41.601125 27.4375 40.578125C26.0095 40.854125 24.504953 41 23.001953 41L23 41L22.998047 41C16.538047 41 9.9980469 38.424 9.9980469 33.5L9.9980469 31.978516C9.9980469 31.438516 10.438516 31 10.978516 31L26 31L26 28L10.978516 28 z" />
</svg>